<svg width="221" height="199" viewBox="0 0 221 199" fill="none" xmlns="http://www.w3.org/2000/svg">
<rect width="221" height="199" fill="white"/>
<rect x="80" y="120" width="5" height="51" fill="#1D63FF"/>
<rect x="31" y="120" width="5" height="51" fill="#1D63FF"/>
<rect opacity="0.4" x="56" y="106" width="5" height="65" fill="#1D63FF"/>
<rect opacity="0.4" x="105" y="134" width="5" height="37" fill="#1D63FF"/>
<rect x="130" y="120" width="5" height="51" fill="#1D63FF"/>
<rect opacity="0.4" x="155" y="95" width="5" height="76" fill="#1D63FF"/>
<rect x="179" y="134" width="5" height="37" fill="#1D63FF"/>
<path d="M25.064 46V36.396H30.118C30.8273 36.396 31.4153 36.5173 31.882 36.76C32.3487 37.0027 32.6987 37.348 32.932 37.796C33.1653 38.244 33.282 38.7713 33.282 39.378C33.282 40.0033 33.142 40.5587 32.862 41.044C32.582 41.52 32.1713 41.8793 31.63 42.122L33.618 46H31.63L29.866 42.43H26.884V46H25.064ZM26.884 40.904H29.978C30.4447 40.904 30.804 40.7687 31.056 40.498C31.308 40.2273 31.434 39.854 31.434 39.378C31.434 39.07 31.378 38.8133 31.266 38.608C31.154 38.3933 30.9907 38.23 30.776 38.118C30.5613 38.006 30.2953 37.95 29.978 37.95H26.884V40.904ZM35.0992 46V36.396H42.5892V37.95H36.9192V40.316H41.9732V41.87H36.9192V44.446H42.6732V46H35.0992ZM48.7334 46.168C47.7534 46.168 46.9134 45.9953 46.2134 45.65C45.5227 45.3047 44.9907 44.768 44.6174 44.04C44.2534 43.3027 44.0714 42.3553 44.0714 41.198C44.0714 39.5087 44.4821 38.258 45.3034 37.446C46.1247 36.634 47.2681 36.228 48.7334 36.228C49.5267 36.228 50.2407 36.3633 50.8754 36.634C51.5194 36.9047 52.0281 37.3153 52.4014 37.866C52.7841 38.4073 52.9754 39.098 52.9754 39.938H51.1134C51.1134 39.4713 51.0107 39.0793 50.8054 38.762C50.6094 38.4353 50.3341 38.188 49.9794 38.02C49.6247 37.852 49.2187 37.768 48.7614 37.768C48.1267 37.768 47.5994 37.894 47.1794 38.146C46.7594 38.3887 46.4467 38.7527 46.2414 39.238C46.0454 39.7233 45.9474 40.3253 45.9474 41.044V41.352C45.9474 42.08 46.0454 42.6867 46.2414 43.172C46.4467 43.6573 46.7547 44.0213 47.1654 44.264C47.5854 44.5067 48.1174 44.628 48.7614 44.628C49.2467 44.628 49.6714 44.5487 50.0354 44.39C50.3994 44.222 50.6794 43.9793 50.8754 43.662C51.0807 43.3353 51.1834 42.9387 51.1834 42.472H52.9754C52.9754 43.312 52.7887 44.0073 52.4154 44.558C52.0421 45.0993 51.5334 45.5053 50.8894 45.776C50.2547 46.0373 49.5361 46.168 48.7334 46.168ZM54.5953 46V36.396H62.0853V37.95H56.4153V40.316H61.4693V41.87H56.4153V44.446H62.1693V46H54.5953ZM64.0015 46V36.396H65.8215V46H64.0015ZM70.3047 46V37.964H67.2387V36.396H75.2047V37.964H72.1247V46H70.3047ZM74.4372 46L78.1752 36.396H80.4712L84.2232 46H82.2492L81.4792 43.956H77.0832L76.3132 46H74.4372ZM77.6572 42.416H80.8912L79.9252 39.812C79.8879 39.7187 79.8412 39.602 79.7852 39.462C79.7385 39.3127 79.6872 39.154 79.6312 38.986C79.5752 38.8087 79.5192 38.6313 79.4632 38.454C79.4072 38.2767 79.3559 38.118 79.3092 37.978H79.2392C79.1832 38.1647 79.1132 38.3793 79.0292 38.622C78.9545 38.8647 78.8799 39.0933 78.8052 39.308C78.7305 39.5227 78.6699 39.6907 78.6232 39.812L77.6572 42.416ZM87.1657 46L90.9037 36.396H93.1997L96.9517 46H94.9777L94.2077 43.956H89.8117L89.0417 46H87.1657ZM90.3857 42.416H93.6197L92.6537 39.812C92.6164 39.7187 92.5697 39.602 92.5137 39.462C92.467 39.3127 92.4157 39.154 92.3597 38.986C92.3037 38.8087 92.2477 38.6313 92.1917 38.454C92.1357 38.2767 92.0844 38.118 92.0377 37.978H91.9677C91.9117 38.1647 91.8417 38.3793 91.7577 38.622C91.683 38.8647 91.6084 39.0933 91.5337 39.308C91.459 39.5227 91.3984 39.6907 91.3517 39.812L90.3857 42.416ZM98.0855 46V36.396H99.8215L103.923 42.066C103.97 42.122 104.026 42.2013 104.091 42.304C104.157 42.3973 104.217 42.4907 104.273 42.584C104.329 42.6773 104.367 42.752 104.385 42.808H104.455C104.455 42.6773 104.455 42.5513 104.455 42.43C104.455 42.3087 104.455 42.1873 104.455 42.066V36.396H106.205V46H104.483L100.367 40.288C100.293 40.176 100.204 40.0407 100.101 39.882C100.008 39.714 99.9428 39.5973 99.9055 39.532H99.8355C99.8355 39.6533 99.8355 39.7793 99.8355 39.91C99.8355 40.0313 99.8355 40.1573 99.8355 40.288V46H98.0855ZM112.329 46.168C111.489 46.168 110.766 46.0327 110.159 45.762C109.553 45.4913 109.086 45.0807 108.759 44.53C108.442 43.97 108.283 43.2747 108.283 42.444V36.396H110.103V42.388C110.103 43.1253 110.295 43.6853 110.677 44.068C111.069 44.4413 111.62 44.628 112.329 44.628C113.039 44.628 113.589 44.4413 113.981 44.068C114.383 43.6853 114.583 43.1253 114.583 42.388V36.396H116.403V42.444C116.403 43.2747 116.24 43.97 115.913 44.53C115.587 45.0807 115.12 45.4913 114.513 45.762C113.907 46.0327 113.179 46.168 112.329 46.168ZM117.271 46L121.009 36.396H123.305L127.057 46H125.083L124.313 43.956H119.917L119.147 46H117.271ZM120.491 42.416H123.725L122.759 39.812C122.722 39.7187 122.675 39.602 122.619 39.462C122.573 39.3127 122.521 39.154 122.465 38.986C122.409 38.8087 122.353 38.6313 122.297 38.454C122.241 38.2767 122.19 38.118 122.143 37.978H122.073C122.017 38.1647 121.947 38.3793 121.863 38.622C121.789 38.8647 121.714 39.0933 121.639 39.308C121.565 39.5227 121.504 39.6907 121.457 39.812L120.491 42.416ZM128.191 46V36.396H130.011V44.418H134.827V46H128.191Z" fill="#353345"/>
<path d="M27.783 66.156C27.055 66.156 26.4483 66.0303 25.963 65.779C25.4777 65.519 25.1137 65.1247 24.871 64.596C24.6283 64.0673 24.507 63.3957 24.507 62.581C24.507 61.7577 24.6283 61.086 24.871 60.566C25.1137 60.0373 25.4777 59.6473 25.963 59.396C26.4483 59.136 27.055 59.006 27.783 59.006C28.4417 59.006 28.992 59.1317 29.434 59.383C29.8847 59.6257 30.2227 60.0027 30.448 60.514C30.6733 61.0253 30.786 61.6883 30.786 62.503V62.971H26.132C26.1493 63.3957 26.2143 63.7553 26.327 64.05C26.4397 64.336 26.613 64.5527 26.847 64.7C27.0897 64.8387 27.406 64.908 27.796 64.908C27.9953 64.908 28.1817 64.882 28.355 64.83C28.5283 64.778 28.68 64.7 28.81 64.596C28.94 64.4833 29.0397 64.3447 29.109 64.18C29.187 64.0153 29.226 63.8247 29.226 63.608H30.786C30.786 64.0413 30.708 64.4183 30.552 64.739C30.4047 65.0597 30.1923 65.324 29.915 65.532C29.6463 65.74 29.33 65.896 28.966 66C28.602 66.104 28.2077 66.156 27.783 66.156ZM26.158 61.853H29.135C29.135 61.567 29.1003 61.3243 29.031 61.125C28.9703 60.9257 28.8793 60.761 28.758 60.631C28.6453 60.501 28.5067 60.41 28.342 60.358C28.1773 60.2973 27.991 60.267 27.783 60.267C27.445 60.267 27.159 60.3233 26.925 60.436C26.6997 60.5487 26.5263 60.722 26.405 60.956C26.2837 61.19 26.2013 61.489 26.158 61.853ZM33.8871 66L31.3521 59.162H33.0161L34.1211 62.243C34.1731 62.3903 34.2338 62.5897 34.3031 62.841C34.3811 63.0837 34.4591 63.3393 34.5371 63.608C34.6151 63.868 34.6801 64.1063 34.7321 64.323H34.7971C34.8491 64.1237 34.9098 63.894 34.9791 63.634C35.0484 63.374 35.1178 63.1183 35.1871 62.867C35.2651 62.6157 35.3344 62.4077 35.3951 62.243L36.4871 59.162H38.0991L35.5511 66H33.8871ZM42.055 66.156C41.3096 66.156 40.6856 66.0303 40.183 65.779C39.6803 65.519 39.3033 65.1247 39.052 64.596C38.8006 64.0673 38.675 63.3957 38.675 62.581C38.675 61.7577 38.8006 61.086 39.052 60.566C39.3033 60.0373 39.6803 59.6473 40.183 59.396C40.6856 59.136 41.3096 59.006 42.055 59.006C42.809 59.006 43.433 59.136 43.927 59.396C44.4296 59.6473 44.8066 60.0373 45.058 60.566C45.3093 61.086 45.435 61.7577 45.435 62.581C45.435 63.3957 45.3093 64.0673 45.058 64.596C44.8066 65.1247 44.4296 65.519 43.927 65.779C43.433 66.0303 42.809 66.156 42.055 66.156ZM42.055 64.856C42.471 64.856 42.8046 64.778 43.056 64.622C43.316 64.4573 43.5023 64.2147 43.615 63.894C43.7363 63.5647 43.797 63.1573 43.797 62.672V62.49C43.797 62.0047 43.7363 61.6017 43.615 61.281C43.5023 60.9517 43.316 60.709 43.056 60.553C42.8046 60.3883 42.471 60.306 42.055 60.306C41.639 60.306 41.301 60.3883 41.041 60.553C40.7896 60.709 40.6033 60.9517 40.482 61.281C40.3693 61.6017 40.313 62.0047 40.313 62.49V62.672C40.313 63.1573 40.3693 63.5647 40.482 63.894C40.6033 64.2147 40.7896 64.4573 41.041 64.622C41.301 64.778 41.639 64.856 42.055 64.856ZM46.7825 66V56.601H48.3685V66H46.7825ZM52.2289 66.156C51.5702 66.156 51.0329 65.9783 50.6169 65.623C50.2096 65.259 50.0059 64.6437 50.0059 63.777V59.162H51.5919V63.491C51.5919 63.7337 51.6179 63.9373 51.6699 64.102C51.7306 64.258 51.8129 64.388 51.9169 64.492C52.0296 64.5873 52.1639 64.6567 52.3199 64.7C52.4759 64.7433 52.6492 64.765 52.8399 64.765C53.1259 64.765 53.3816 64.6957 53.6069 64.557C53.8409 64.4183 54.0229 64.2277 54.1529 63.985C54.2916 63.7337 54.3609 63.452 54.3609 63.14V59.162H55.9469V66H54.6339L54.5039 65.09H54.4129C54.2569 65.298 54.0706 65.4843 53.8539 65.649C53.6459 65.805 53.4032 65.9263 53.1259 66.013C52.8572 66.1083 52.5582 66.156 52.2289 66.156ZM60.484 66.156C59.7733 66.156 59.1797 66.0303 58.703 65.779C58.235 65.519 57.884 65.1247 57.65 64.596C57.416 64.0673 57.299 63.3957 57.299 62.581C57.299 61.7577 57.416 61.086 57.65 60.566C57.8927 60.0373 58.248 59.6473 58.716 59.396C59.1927 59.136 59.782 59.006 60.484 59.006C60.9433 59.006 61.3507 59.0623 61.706 59.175C62.0613 59.2877 62.3647 59.461 62.616 59.695C62.876 59.9203 63.071 60.202 63.201 60.54C63.331 60.878 63.396 61.2723 63.396 61.723H61.784C61.784 61.4023 61.7363 61.138 61.641 60.93C61.5457 60.722 61.3983 60.566 61.199 60.462C61.0083 60.3493 60.7613 60.293 60.458 60.293C60.1027 60.293 59.8123 60.3753 59.587 60.54C59.3617 60.7047 59.1927 60.9517 59.08 61.281C58.976 61.6017 58.924 62.009 58.924 62.503V62.672C58.924 63.1573 58.976 63.5647 59.08 63.894C59.1927 64.2233 59.366 64.4703 59.6 64.635C59.834 64.791 60.1417 64.869 60.523 64.869C60.8177 64.869 61.0603 64.817 61.251 64.713C61.4503 64.6003 61.602 64.4357 61.706 64.219C61.81 64.0023 61.862 63.7423 61.862 63.439H63.396C63.396 63.8637 63.331 64.245 63.201 64.583C63.071 64.921 62.8803 65.207 62.629 65.441C62.3777 65.675 62.07 65.8527 61.706 65.974C61.3507 66.0953 60.9433 66.156 60.484 66.156ZM60.341 68.366C60.1243 68.366 59.899 68.3573 59.665 68.34C59.431 68.3227 59.2187 68.2967 59.028 68.262V67.625H60.224C60.3973 67.625 60.5317 67.6033 60.627 67.56C60.731 67.5167 60.783 67.4343 60.783 67.313C60.783 67.209 60.744 67.131 60.666 67.079C60.5967 67.027 60.458 67.001 60.25 67.001H59.678L59.86 65.857H60.874L60.796 66.442C61.0213 66.4507 61.2293 66.4853 61.42 66.546C61.6107 66.6153 61.7623 66.7107 61.875 66.832C61.9877 66.9533 62.044 67.1137 62.044 67.313C62.044 67.5297 61.9877 67.7073 61.875 67.846C61.7623 67.9847 61.6193 68.0887 61.446 68.158C61.2727 68.236 61.0863 68.288 60.887 68.314C60.6963 68.3487 60.5143 68.366 60.341 68.366ZM66.5014 66.156C66.3107 66.156 66.0897 66.13 65.8384 66.078C65.5957 66.0347 65.3574 65.948 65.1234 65.818C64.898 65.688 64.7117 65.4973 64.5644 65.246C64.417 64.986 64.3434 64.648 64.3434 64.232C64.3434 63.764 64.4474 63.3783 64.6554 63.075C64.8634 62.763 65.1537 62.5203 65.5264 62.347C65.9077 62.165 66.3584 62.0393 66.8784 61.97C67.407 61.892 67.9834 61.853 68.6074 61.853V61.294C68.6074 61.0947 68.577 60.917 68.5164 60.761C68.4557 60.605 68.343 60.4837 68.1784 60.397C68.0224 60.3017 67.784 60.254 67.4634 60.254C67.1427 60.254 66.8914 60.293 66.7094 60.371C66.5274 60.449 66.4017 60.5443 66.3324 60.657C66.263 60.7697 66.2284 60.8867 66.2284 61.008V61.19H64.6944C64.6857 61.1467 64.6814 61.1033 64.6814 61.06C64.6814 61.0167 64.6814 60.9647 64.6814 60.904C64.6814 60.514 64.7984 60.176 65.0324 59.89C65.2664 59.604 65.5914 59.3873 66.0074 59.24C66.4234 59.084 66.9044 59.006 67.4504 59.006C68.0744 59.006 68.5857 59.0927 68.9844 59.266C69.3917 59.4393 69.695 59.6863 69.8944 60.007C70.0937 60.3277 70.1934 60.7177 70.1934 61.177V64.401C70.1934 64.5657 70.241 64.6827 70.3364 64.752C70.4317 64.8213 70.5357 64.856 70.6484 64.856H71.0644V65.948C70.9777 65.9827 70.852 66.0217 70.6874 66.065C70.5227 66.117 70.319 66.143 70.0764 66.143C69.851 66.143 69.6474 66.104 69.4654 66.026C69.292 65.9567 69.1447 65.8527 69.0234 65.714C68.902 65.5753 68.8154 65.4107 68.7634 65.22H68.6854C68.538 65.402 68.3604 65.5667 68.1524 65.714C67.953 65.8527 67.7147 65.961 67.4374 66.039C67.1687 66.117 66.8567 66.156 66.5014 66.156ZM66.9824 64.856C67.2424 64.856 67.472 64.817 67.6714 64.739C67.8794 64.661 68.0484 64.5527 68.1784 64.414C68.317 64.2753 68.421 64.1063 68.4904 63.907C68.5684 63.7077 68.6074 63.491 68.6074 63.257V62.945C68.1307 62.945 67.6887 62.9753 67.2814 63.036C66.8827 63.0967 66.562 63.2093 66.3194 63.374C66.0854 63.5387 65.9684 63.7727 65.9684 64.076C65.9684 64.232 66.003 64.3707 66.0724 64.492C66.1504 64.6047 66.263 64.6957 66.4104 64.765C66.5664 64.8257 66.757 64.856 66.9824 64.856ZM65.2794 58.122C65.2794 57.8447 65.3184 57.5933 65.3964 57.368C65.483 57.134 65.6174 56.9477 65.7994 56.809C65.9814 56.6703 66.2154 56.601 66.5014 56.601C66.7267 56.601 66.9347 56.64 67.1254 56.718C67.3247 56.7873 67.5197 56.861 67.7104 56.939C67.901 57.017 68.096 57.056 68.2954 57.056C68.4167 57.056 68.512 57.0257 68.5814 56.965C68.6594 56.8957 68.707 56.7743 68.7244 56.601H69.6084C69.6084 56.8697 69.565 57.121 69.4784 57.355C69.4004 57.5803 69.2704 57.7667 69.0884 57.914C68.915 58.0527 68.681 58.122 68.3864 58.122C68.1697 58.122 67.9617 58.083 67.7624 58.005C67.563 57.927 67.368 57.849 67.1774 57.771C66.9954 57.693 66.8047 57.654 66.6054 57.654C66.4927 57.654 66.3974 57.6887 66.3194 57.758C66.2414 57.8273 66.1937 57.9487 66.1764 58.122H65.2794ZM75.012 66.156C74.2667 66.156 73.6427 66.0303 73.14 65.779C72.6373 65.519 72.2603 65.1247 72.009 64.596C71.7577 64.0673 71.632 63.3957 71.632 62.581C71.632 61.7577 71.7577 61.086 72.009 60.566C72.2603 60.0373 72.6373 59.6473 73.14 59.396C73.6427 59.136 74.2667 59.006 75.012 59.006C75.766 59.006 76.39 59.136 76.884 59.396C77.3867 59.6473 77.7637 60.0373 78.015 60.566C78.2663 61.086 78.392 61.7577 78.392 62.581C78.392 63.3957 78.2663 64.0673 78.015 64.596C77.7637 65.1247 77.3867 65.519 76.884 65.779C76.39 66.0303 75.766 66.156 75.012 66.156ZM75.012 64.856C75.428 64.856 75.7617 64.778 76.013 64.622C76.273 64.4573 76.4593 64.2147 76.572 63.894C76.6933 63.5647 76.754 63.1573 76.754 62.672V62.49C76.754 62.0047 76.6933 61.6017 76.572 61.281C76.4593 60.9517 76.273 60.709 76.013 60.553C75.7617 60.3883 75.428 60.306 75.012 60.306C74.596 60.306 74.258 60.3883 73.998 60.553C73.7467 60.709 73.5603 60.9517 73.439 61.281C73.3263 61.6017 73.27 62.0047 73.27 62.49V62.672C73.27 63.1573 73.3263 63.5647 73.439 63.894C73.5603 64.2147 73.7467 64.4573 73.998 64.622C74.258 64.778 74.596 64.856 75.012 64.856Z" fill="#4C4A5E"/>
<path opacity="0.4" d="M192.333 47.4167C192.333 53.6759 187.259 58.75 181 58.75C174.741 58.75 169.667 53.6759 169.667 47.4167C169.667 41.1574 174.741 36.0833 181 36.0833C187.259 36.0833 192.333 41.1574 192.333 47.4167Z" fill="#1D63FF"/>
<path fill-rule="evenodd" clip-rule="evenodd" d="M174.582 43.832C174.167 44.247 174.167 44.9197 174.582 45.3346L180.249 51.0013C180.448 51.2006 180.718 51.3125 181 51.3125C181.282 51.3125 181.552 51.2006 181.751 51.0013L187.418 45.3346C187.833 44.9197 187.833 44.247 187.418 43.832C187.003 43.4171 186.33 43.4171 185.916 43.832L182.063 47.6849L182.063 30.4167C182.063 29.8299 181.587 29.3542 181 29.3542C180.413 29.3542 179.938 29.8299 179.938 30.4167L179.938 47.6849L176.085 43.832C175.67 43.4171 174.997 43.4171 174.582 43.832Z" fill="#1D63FF"/>
</svg>
