<svg width="63" height="63" viewBox="0 0 63 63" fill="none" xmlns="http://www.w3.org/2000/svg">
<circle cx="31.5" cy="31.5" r="31.5" fill="white" fill-opacity="0.9"/>
<path opacity="0.6" fill-rule="evenodd" clip-rule="evenodd" d="M34.0556 40.4444H40.4444C41.8564 40.4444 43 39.3008 43 37.8889V22.5556C43 21.1436 41.8564 20 40.4444 20H22.5556C21.1436 20 20 21.1436 20 22.5556V37.8889C20 39.3008 21.1436 40.4444 22.5556 40.4444H28.9444L31.5 43L34.0556 40.4444Z" stroke="#1D63FF" stroke-width="2.5" stroke-linecap="round" stroke-linejoin="round"/>
<path d="M31.7261 30.3155C31.8514 30.4407 31.8514 30.6426 31.7261 30.7678C31.6009 30.8931 31.399 30.8931 31.2738 30.7678C31.1486 30.6426 31.1486 30.4407 31.2738 30.3155C31.399 30.1916 31.6009 30.1916 31.7261 30.3155" stroke="#1D63FF" stroke-width="2.5" stroke-linecap="round" stroke-linejoin="round"/>
<path d="M36.8372 30.3155C36.9624 30.4407 36.9624 30.6426 36.8372 30.7678C36.712 30.8931 36.5101 30.8931 36.3849 30.7678C36.2597 30.6426 36.2597 30.4407 36.3849 30.3155C36.5101 30.1916 36.712 30.1916 36.8372 30.3155" stroke="#1D63FF" stroke-width="2.5" stroke-linecap="round" stroke-linejoin="round"/>
<path d="M26.6151 30.3155C26.7403 30.4407 26.7403 30.6426 26.6151 30.7678C26.4898 30.8931 26.2879 30.8931 26.1627 30.7678C26.0375 30.6426 26.0375 30.4407 26.1627 30.3155C26.2879 30.1916 26.4898 30.1916 26.6151 30.3155" stroke="#1D63FF" stroke-width="2.5" stroke-linecap="round" stroke-linejoin="round"/>
</svg>
