<svg width="25" height="24" viewBox="0 0 25 24" fill="none" xmlns="http://www.w3.org/2000/svg">
<g clip-path="url(#clip0_2816_20674)">
<path d="M24.2256 12.27C24.2256 11.48 24.1556 10.73 24.0356 10H12.7356V14.51H19.2056C18.9156 15.99 18.0656 17.24 16.8056 18.09V21.09H20.6656C22.9256 19 24.2256 15.92 24.2256 12.27Z" fill="#4285F4"/>
<path d="M12.7356 24C15.9756 24 18.6856 22.92 20.6656 21.09L16.8056 18.09C15.7256 18.81 14.3556 19.25 12.7356 19.25C9.60564 19.25 6.95564 17.14 6.00564 14.29H2.02563V17.38C3.99563 21.3 8.04564 24 12.7356 24Z" fill="#34A853"/>
<path d="M6.0056 14.29C5.7556 13.57 5.6256 12.8 5.6256 12C5.6256 11.2 5.7656 10.43 6.0056 9.71V6.62H2.02559C1.20559 8.24 0.735596 10.06 0.735596 12C0.735596 13.94 1.20559 15.76 2.02559 17.38L6.0056 14.29Z" fill="#FBBC05"/>
<path d="M12.7356 4.75C14.5056 4.75 16.0856 5.36 17.3356 6.55L20.7556 3.13C18.6856 1.19 15.9756 0 12.7356 0C8.04564 0 3.99563 2.7 2.02563 6.62L6.00564 9.71C6.95564 6.86 9.60564 4.75 12.7356 4.75Z" fill="#EA4335"/>
</g>
<defs>
<clipPath id="clip0_2816_20674">
<rect width="24" height="24" fill="white" transform="translate(0.480713)"/>
</clipPath>
</defs>
</svg>
