<svg width="32" height="32" viewBox="0 0 32 32" fill="none" xmlns="http://www.w3.org/2000/svg">
<circle cx="16" cy="16" r="16" fill="#1D63FF"/>
<path d="M16 7C20.982 7 25 11.018 25 16C25 20.982 20.982 25 16 25" stroke="#F2F5FC" stroke-width="1.5" stroke-linecap="round" stroke-linejoin="round"/>
<path d="M16 25C11.018 25 7 20.982 7 16C7 11.018 11.018 7 16 7" stroke="#F2F5FC" stroke-width="1.5" stroke-linecap="round" stroke-linejoin="round"/>
<path fill-rule="evenodd" clip-rule="evenodd" d="M14.168 8.06C11.278 12.885 11.278 19.116 14.168 23.941C15.014 25.354 16.987 25.354 17.833 23.941C20.723 19.116 20.723 12.885 17.833 8.06C16.986 6.647 15.014 6.647 14.168 8.06Z" stroke="#F2F5FC" stroke-width="1.5" stroke-linecap="round" stroke-linejoin="round"/>
<path d="M8.01001 11.858C12.902 13.369 19.098 13.369 23.989 11.858" stroke="#F2F5FC" stroke-width="1.5" stroke-linecap="round" stroke-linejoin="round"/>
<path d="M23.99 20.142C19.098 18.631 12.902 18.631 8.01099 20.142" stroke="#F2F5FC" stroke-width="1.5" stroke-linecap="round" stroke-linejoin="round"/>
</svg>
