<svg width="16" height="22" viewBox="0 0 16 22" fill="none" xmlns="http://www.w3.org/2000/svg">
<rect width="16" height="22" fill="#E5E5E5"/>
<g clip-path="url(#clip0_1315_1413)">
<rect width="1440" height="5858" transform="translate(-416 -570)" fill="white"/>
<path d="M-416 -538H1024V262H-416V-538Z" fill="#F2F5FC"/>
<path fill-rule="evenodd" clip-rule="evenodd" d="M12.1111 21H3.22222C1.99444 21 1 20.0056 1 18.7778V3.22222C1 1.99444 1.99444 1 3.22222 1H12.1111C13.3389 1 14.3333 1.99444 14.3333 3.22222V18.7778C14.3333 20.0056 13.3389 21 12.1111 21Z" stroke="#1D63FF" stroke-width="2" stroke-linecap="round" stroke-linejoin="round"/>
<path d="M7.66553 16.8333C7.5122 16.8333 7.38775 16.9578 7.38887 17.1111C7.38887 17.2644 7.51331 17.3889 7.66664 17.3889C7.81998 17.3889 7.94442 17.2644 7.94442 17.1111C7.94442 16.9578 7.81998 16.8333 7.66553 16.8333" stroke="#1D63FF" stroke-width="2" stroke-linecap="round" stroke-linejoin="round"/>
<path d="M6.27771 4.33333H9.05549" stroke="#1D63FF" stroke-width="2" stroke-linecap="round" stroke-linejoin="round"/>
</g>
<defs>
<clipPath id="clip0_1315_1413">
<rect width="1440" height="5858" fill="white" transform="translate(-416 -570)"/>
</clipPath>
</defs>
</svg>
