<svg width="26" height="24" viewBox="0 0 26 24" fill="none" xmlns="http://www.w3.org/2000/svg">
<path d="M12.1093 0.745359C12.4804 0.0181081 13.5196 0.0181087 13.8907 0.74536L16.9655 6.7705C17.1108 7.05522 17.3835 7.25332 17.6992 7.30352L24.3796 8.36599C25.186 8.49423 25.5071 9.48252 24.9301 10.0602L20.15 14.8464C19.9241 15.0726 19.82 15.3931 19.8698 15.7089L20.9237 22.3907C21.0509 23.1972 20.2102 23.808 19.4825 23.4378L13.4534 20.3707C13.1685 20.2257 12.8315 20.2257 12.5466 20.3707L6.51751 23.4378C5.78978 23.808 4.94909 23.1972 5.0763 22.3907L6.1302 15.7089C6.18 15.3931 6.07585 15.0726 5.84997 14.8464L1.0699 10.0602C0.49293 9.48252 0.814045 8.49423 1.62039 8.36599L8.30081 7.30352C8.6165 7.25332 8.88915 7.05522 9.03446 6.7705L12.1093 0.745359Z" fill="white"/>
</svg>
