<svg width="151" height="19" viewBox="0 0 151 19" fill="none" xmlns="http://www.w3.org/2000/svg">
<rect x="12.0547" y="-6.10352e-05" width="9.27273" height="18.5455" rx="0.138385" fill="#1D63FF"/>
<rect x="0.730795" y="10.0037" width="7.81114" height="7.81114" stroke="#1D63FF" stroke-width="1.46159"/>
<path d="M33.7603 13.9509C33.2064 13.9509 32.6723 13.8965 32.158 13.7877C31.6535 13.6789 31.2035 13.5058 30.8079 13.2684C30.4122 13.0212 30.0957 12.7047 29.8583 12.3189C29.6308 11.9332 29.5171 11.4584 29.5171 10.8946C29.5171 10.8452 29.5171 10.7957 29.5171 10.7463C29.527 10.6968 29.5319 10.6473 29.5319 10.5979H30.9562C30.9562 10.6276 30.9513 10.677 30.9414 10.7463C30.9414 10.8056 30.9414 10.86 30.9414 10.9095C30.9414 11.3051 31.0601 11.6414 31.2975 11.9183C31.5348 12.1953 31.8612 12.403 32.2767 12.5415C32.702 12.67 33.1817 12.7343 33.7158 12.7343C33.9532 12.7343 34.2004 12.7195 34.4576 12.6898C34.7247 12.6601 34.9769 12.6107 35.2143 12.5415C35.4615 12.4623 35.6791 12.3634 35.8671 12.2447C36.0649 12.1161 36.2182 11.9628 36.327 11.7848C36.4457 11.5969 36.505 11.3694 36.505 11.1023C36.505 10.766 36.4061 10.4891 36.2083 10.2715C36.0204 10.044 35.7682 9.86102 35.4516 9.72254C35.1351 9.57418 34.7741 9.4456 34.3686 9.3368C33.973 9.21811 33.5625 9.10436 33.1372 8.99556C32.7119 8.88676 32.2964 8.76313 31.8909 8.62465C31.4953 8.47629 31.1392 8.29825 30.8227 8.09054C30.5062 7.87294 30.249 7.60589 30.0512 7.28938C29.8633 6.97287 29.7693 6.58712 29.7693 6.13214C29.7693 5.70683 29.8534 5.32603 30.0215 4.98974C30.1996 4.65345 30.4567 4.37156 30.793 4.14407C31.1392 3.90669 31.5645 3.72865 32.069 3.60996C32.5734 3.48138 33.152 3.41709 33.8048 3.41709C34.3389 3.41709 34.8335 3.47643 35.2884 3.59512C35.7533 3.70392 36.1588 3.87701 36.505 4.1144C36.8611 4.34189 37.138 4.63367 37.3359 4.98974C37.5337 5.34581 37.6326 5.77607 37.6326 6.28051V6.45854H36.238V6.236C36.238 5.89971 36.1341 5.61287 35.9264 5.37549C35.7187 5.1381 35.4319 4.95512 35.0659 4.82654C34.7098 4.69796 34.3043 4.63367 33.8493 4.63367C33.2559 4.63367 32.7613 4.69301 32.3657 4.8117C31.97 4.9205 31.6733 5.0837 31.4755 5.3013C31.2876 5.50901 31.1936 5.7464 31.1936 6.01345C31.1936 6.32007 31.2876 6.57723 31.4755 6.78494C31.6733 6.99265 31.9305 7.16574 32.247 7.30422C32.5635 7.4328 32.9245 7.55149 33.33 7.66029C33.7356 7.76909 34.146 7.88283 34.5615 8.00152C34.9868 8.11032 35.3972 8.23891 35.7929 8.38727C36.1984 8.52574 36.5594 8.70378 36.8759 8.92138C37.2023 9.12909 37.4595 9.39614 37.6474 9.72254C37.8354 10.0391 37.9293 10.4297 37.9293 10.8946C37.9293 11.6167 37.7513 12.2052 37.3952 12.6601C37.0391 13.1052 36.5495 13.4316 35.9264 13.6393C35.3033 13.8471 34.5812 13.9509 33.7603 13.9509ZM39.9745 13.7729V5.96894H41.0279L41.1466 7.14101H41.2505C41.4483 6.82451 41.6708 6.56734 41.9181 6.36952C42.1654 6.17171 42.4374 6.02829 42.7341 5.93927C43.0308 5.84036 43.3523 5.7909 43.6985 5.7909C44.2029 5.7909 44.6381 5.89476 45.0041 6.10247C45.37 6.30029 45.642 6.64647 45.8201 7.14101H45.9091C46.097 6.82451 46.3146 6.57229 46.5619 6.38436C46.8092 6.18654 47.0861 6.03818 47.3927 5.93927C47.6993 5.84036 48.0257 5.7909 48.3719 5.7909C48.8467 5.7909 49.2621 5.87498 49.6182 6.04312C49.9742 6.20138 50.2512 6.46843 50.449 6.84429C50.6567 7.21025 50.7606 7.7048 50.7606 8.32792V13.7729H49.455V8.53563C49.455 8.21912 49.4154 7.95702 49.3363 7.74931C49.267 7.5416 49.1632 7.38334 49.0247 7.27454C48.8862 7.15585 48.723 7.07178 48.5351 7.02232C48.3571 6.97287 48.1642 6.94814 47.9565 6.94814C47.6103 6.94814 47.2889 7.03716 46.9921 7.2152C46.7053 7.39323 46.4729 7.6504 46.2948 7.98669C46.1168 8.32298 46.0278 8.72356 46.0278 9.18843V13.7729H44.7222V8.53563C44.7222 8.21912 44.6826 7.95702 44.6035 7.74931C44.5244 7.5416 44.4205 7.38334 44.2919 7.27454C44.1633 7.15585 44.0051 7.07178 43.8172 7.02232C43.6391 6.97287 43.4512 6.94814 43.2534 6.94814C42.8973 6.94814 42.566 7.03716 42.2593 7.2152C41.9626 7.39323 41.7252 7.6504 41.5472 7.98669C41.3692 8.32298 41.2801 8.72356 41.2801 9.18843V13.7729H39.9745ZM54.92 13.9509C54.6331 13.9509 54.3463 13.9163 54.0595 13.8471C53.7726 13.7778 53.5056 13.6641 53.2583 13.5058C53.011 13.3476 52.8132 13.13 52.6648 12.853C52.5165 12.5662 52.4423 12.2101 52.4423 11.7848C52.4423 11.2507 52.5709 10.8105 52.828 10.4644C53.0852 10.1182 53.4413 9.85113 53.8963 9.6632C54.3611 9.46538 54.9101 9.33185 55.5431 9.26262C56.1761 9.18349 56.8635 9.14393 57.6054 9.14393V8.25374C57.6054 7.96691 57.5559 7.71963 57.457 7.51192C57.3581 7.30422 57.1801 7.14596 56.9229 7.03716C56.6756 6.91847 56.3195 6.85912 55.8547 6.85912C55.4096 6.85912 55.0535 6.91847 54.7864 7.03716C54.5293 7.14596 54.3463 7.28938 54.2375 7.46742C54.1386 7.64545 54.0891 7.84327 54.0891 8.06087V8.28342H52.828C52.8182 8.23396 52.8132 8.18451 52.8132 8.13505C52.8132 8.0856 52.8132 8.02625 52.8132 7.95702C52.8132 7.48225 52.9418 7.08661 53.199 6.77011C53.466 6.44371 53.8369 6.20138 54.3117 6.04312C54.7864 5.87498 55.3304 5.7909 55.9437 5.7909C56.5965 5.7909 57.1405 5.88487 57.5757 6.0728C58.0208 6.26072 58.3521 6.52778 58.5697 6.87396C58.7972 7.22014 58.911 7.63556 58.911 8.12022V12.3486C58.911 12.5365 58.9555 12.67 59.0445 12.7492C59.1335 12.8184 59.2423 12.853 59.3709 12.853H59.9495V13.7135C59.811 13.7729 59.6577 13.8223 59.4896 13.8619C59.3214 13.9113 59.1286 13.9361 58.911 13.9361C58.6538 13.9361 58.4411 13.8817 58.273 13.7729C58.1049 13.674 57.9763 13.5355 57.8873 13.3575C57.7982 13.1695 57.7389 12.9618 57.7092 12.7343H57.6054C57.4273 12.9816 57.1998 13.1992 56.9229 13.3871C56.6558 13.5652 56.3542 13.7036 56.0179 13.8025C55.6816 13.9015 55.3156 13.9509 54.92 13.9509ZM55.2464 12.853C55.5629 12.853 55.8596 12.8036 56.1366 12.7047C56.4234 12.6057 56.6756 12.4673 56.8932 12.2892C57.1108 12.1013 57.2839 11.8788 57.4125 11.6216C57.5411 11.3644 57.6054 11.0825 57.6054 10.7759V10.1231C56.8042 10.1231 56.1217 10.1676 55.5579 10.2567C54.9942 10.3457 54.559 10.5039 54.2523 10.7314C53.9556 10.9589 53.8072 11.2804 53.8072 11.6958C53.8072 11.9628 53.8666 12.1804 53.9853 12.3486C54.104 12.5167 54.2721 12.6453 54.4897 12.7343C54.7073 12.8135 54.9595 12.853 55.2464 12.853ZM61.2688 13.7729V5.96894H62.3222L62.4409 7.25971H62.5447C62.6238 7.01243 62.7326 6.78 62.8711 6.5624C63.0096 6.33491 63.1975 6.15192 63.4349 6.01345C63.6723 5.86509 63.9641 5.7909 64.3102 5.7909C64.4586 5.7909 64.5921 5.80574 64.7108 5.83541C64.8394 5.8552 64.9334 5.87992 64.9927 5.9096V7.11134H64.5031C64.1668 7.11134 63.875 7.17069 63.6278 7.28938C63.3904 7.39818 63.1926 7.55643 63.0343 7.76414C62.8761 7.97185 62.7574 8.21912 62.6782 8.50596C62.609 8.7928 62.5744 9.09942 62.5744 9.42582V13.7729H61.2688ZM68.2423 13.9509C67.8368 13.9509 67.5203 13.8767 67.2928 13.7284C67.0653 13.5701 66.9021 13.3673 66.8032 13.1201C66.7043 12.8629 66.6548 12.5909 66.6548 12.3041V7.06683H65.646V5.96894H66.6845L66.9219 3.788H67.9604V5.96894H69.4292V7.06683H67.9604V12.1112C67.9604 12.3585 68.005 12.5464 68.094 12.675C68.183 12.7937 68.3511 12.853 68.5984 12.853H69.4292V13.7135C69.3303 13.763 69.2116 13.8025 69.0732 13.8322C68.9347 13.8619 68.7913 13.8866 68.6429 13.9064C68.5044 13.9361 68.3709 13.9509 68.2423 13.9509Z" fill="#1E1C2D"/>
<path d="M72.0512 13.7729V3.58029H79.5881C80.1321 3.58029 80.6217 3.68909 81.0569 3.90669C81.4921 4.1144 81.8333 4.40618 82.0806 4.78203C82.3378 5.15789 82.4663 5.59803 82.4663 6.10247C82.4663 6.508 82.3872 6.86901 82.229 7.18552C82.0806 7.50203 81.8778 7.76414 81.6207 7.97185C81.3635 8.17956 81.0767 8.33287 80.7602 8.43178V8.49112C81.136 8.57025 81.4723 8.71862 81.769 8.93622C82.0756 9.15382 82.313 9.43571 82.4812 9.78189C82.6592 10.1182 82.7482 10.5188 82.7482 10.9836C82.7482 11.5969 82.6048 12.1112 82.318 12.5266C82.041 12.942 81.6652 13.2536 81.1904 13.4613C80.7156 13.669 80.1865 13.7729 79.6029 13.7729H72.0512ZM74.5289 11.8293H78.9946C79.3408 11.8293 79.6276 11.7353 79.8551 11.5474C80.0826 11.3595 80.1964 11.0628 80.1964 10.6572C80.1964 10.4396 80.1469 10.2418 80.048 10.0638C79.959 9.88574 79.8205 9.75222 79.6326 9.6632C79.4447 9.56429 79.2023 9.51483 78.9056 9.51483H74.5289V11.8293ZM74.5289 7.66029H78.7276C78.9847 7.66029 79.2023 7.61578 79.3804 7.52676C79.5584 7.42785 79.6919 7.29927 79.781 7.14101C79.8799 6.97287 79.9293 6.78494 79.9293 6.57723C79.9293 6.22116 79.8255 5.95411 79.6178 5.77607C79.41 5.58814 79.138 5.49418 78.8018 5.49418H74.5289V7.66029ZM87.8427 13.9509C86.8041 13.9509 86.0128 13.6987 85.4688 13.1943C84.9347 12.6898 84.6677 11.9084 84.6677 10.8501V5.95411H86.9228V10.494C86.9228 10.7908 86.9624 11.043 87.0415 11.2507C87.1305 11.4584 87.2492 11.6265 87.3976 11.7551C87.5459 11.8837 87.7289 11.9777 87.9465 12.037C88.1641 12.0964 88.4015 12.126 88.6587 12.126C89.0543 12.126 89.4153 12.0469 89.7417 11.8887C90.078 11.7205 90.3451 11.493 90.5429 11.2062C90.7407 10.9095 90.8396 10.5682 90.8396 10.1825V5.95411H93.1096V13.7729H91.2699L91.1067 12.5118H90.988C90.7308 12.858 90.4291 13.1349 90.083 13.3426C89.7467 13.5503 89.3857 13.7036 88.9999 13.8025C88.6241 13.9015 88.2383 13.9509 87.8427 13.9509ZM99.1509 13.9509C98.5772 13.9509 98.0332 13.9015 97.5189 13.8025C97.0046 13.7036 96.5496 13.5553 96.1539 13.3575C95.7682 13.1596 95.4616 12.9124 95.2341 12.6156C95.0066 12.309 94.8928 11.9529 94.8928 11.5474C94.8928 11.498 94.8928 11.4584 94.8928 11.4287C94.9027 11.3892 94.9126 11.3496 94.9225 11.31H97.2073C97.2073 11.3298 97.2024 11.3545 97.1925 11.3842C97.1925 11.404 97.1925 11.4238 97.1925 11.4436C97.2024 11.6809 97.2963 11.8738 97.4744 12.0222C97.6623 12.1607 97.9046 12.2645 98.2014 12.3337C98.508 12.3931 98.8294 12.4228 99.1657 12.4228C99.4921 12.4228 99.8086 12.403 100.115 12.3634C100.422 12.314 100.674 12.2348 100.872 12.126C101.07 12.0073 101.169 11.8392 101.169 11.6216C101.169 11.3743 101.05 11.1963 100.813 11.0875C100.575 10.9787 100.244 10.8946 99.8185 10.8353C99.3932 10.766 98.9036 10.6869 98.3497 10.5979C97.9145 10.5287 97.504 10.4396 97.1183 10.3308C96.7326 10.222 96.3913 10.0836 96.0946 9.91542C95.7979 9.73738 95.5654 9.51483 95.3973 9.24778C95.2291 8.97083 95.1451 8.6296 95.1451 8.22407C95.1451 7.78887 95.244 7.41796 95.4418 7.11134C95.6495 6.79483 95.9363 6.54261 96.3023 6.35469C96.6683 6.15687 97.1035 6.01345 97.6079 5.92443C98.1123 5.82552 98.6662 5.77607 99.2696 5.77607C99.8136 5.77607 100.318 5.82552 100.783 5.92443C101.258 6.01345 101.673 6.15192 102.029 6.33985C102.395 6.51789 102.677 6.74538 102.875 7.02232C103.083 7.29927 103.186 7.62072 103.186 7.98669C103.186 8.02625 103.186 8.07076 103.186 8.12022C103.186 8.15978 103.181 8.1944 103.172 8.22407H100.902V8.13505C100.902 7.94712 100.822 7.79382 100.664 7.67512C100.516 7.54654 100.313 7.45258 100.056 7.39323C99.8086 7.33389 99.5366 7.30422 99.2399 7.30422C99.1014 7.30422 98.9283 7.31411 98.7206 7.33389C98.5228 7.34378 98.32 7.37345 98.1123 7.42291C97.9145 7.47236 97.7464 7.5416 97.6079 7.63062C97.4694 7.70974 97.4002 7.82843 97.4002 7.98669C97.4002 8.18451 97.509 8.33287 97.7266 8.43178C97.9541 8.53069 98.2459 8.60982 98.6019 8.66916C98.9679 8.71862 99.3635 8.77796 99.7888 8.8472C100.244 8.91643 100.689 8.99556 101.124 9.08458C101.569 9.1736 101.96 9.30218 102.296 9.47033C102.642 9.63847 102.919 9.87091 103.127 10.1676C103.335 10.4644 103.439 10.8551 103.439 11.3397C103.439 11.8244 103.335 12.2348 103.127 12.5711C102.919 12.9074 102.628 13.1794 102.252 13.3871C101.876 13.5849 101.426 13.7284 100.902 13.8174C100.377 13.9064 99.7938 13.9509 99.1509 13.9509ZM105.239 4.7672V3.03134H107.509V4.7672H105.239ZM105.239 13.7729V5.95411H107.509V13.7729H105.239ZM109.721 13.7729V5.95411H111.56L111.724 7.2152H111.857C112.114 6.86901 112.411 6.59207 112.747 6.38436C113.084 6.17665 113.445 6.02334 113.83 5.92443C114.226 5.82552 114.617 5.77607 115.002 5.77607C115.695 5.77607 116.273 5.88981 116.738 6.11731C117.213 6.33491 117.569 6.6712 117.807 7.12618C118.044 7.58116 118.163 8.16472 118.163 8.87687V13.7729H115.908V9.23294C115.908 8.93622 115.868 8.684 115.789 8.47629C115.71 8.26858 115.591 8.10043 115.433 7.97185C115.284 7.84327 115.101 7.74931 114.884 7.68996C114.676 7.63062 114.439 7.60094 114.172 7.60094C113.776 7.60094 113.41 7.68502 113.074 7.85316C112.747 8.01142 112.485 8.23891 112.287 8.53563C112.09 8.82247 111.991 9.15876 111.991 9.54451V13.7729H109.721ZM124.797 13.9509C123.808 13.9509 122.957 13.8075 122.245 13.5207C121.533 13.2239 120.984 12.7739 120.598 12.1705C120.213 11.5672 120.02 10.8007 120.02 9.87091C120.02 8.95105 120.208 8.18945 120.584 7.58611C120.959 6.97287 121.498 6.51789 122.201 6.22116C122.903 5.92443 123.739 5.77607 124.708 5.77607C125.707 5.77607 126.548 5.92443 127.23 6.22116C127.923 6.51789 128.442 6.95803 128.788 7.5416C129.144 8.12516 129.322 8.85214 129.322 9.72254V10.3753H122.379C122.399 10.8303 122.507 11.2062 122.705 11.5029C122.903 11.7897 123.18 12.0024 123.536 12.1409C123.902 12.2695 124.332 12.3337 124.827 12.3337C125.064 12.3337 125.306 12.309 125.554 12.2596C125.801 12.2002 126.028 12.1211 126.236 12.0222C126.444 11.9134 126.617 11.7799 126.755 11.6216C126.894 11.4535 126.973 11.2606 126.993 11.043H129.278C129.278 11.4782 129.174 11.8738 128.966 12.2299C128.758 12.586 128.457 12.8926 128.061 13.1497C127.665 13.4069 127.191 13.6047 126.637 13.7432C126.093 13.8817 125.48 13.9509 124.797 13.9509ZM122.379 8.99556H126.933C126.933 8.72851 126.879 8.49607 126.77 8.29825C126.661 8.09054 126.508 7.9224 126.31 7.79382C126.113 7.66523 125.88 7.56632 125.613 7.49709C125.356 7.42785 125.074 7.39323 124.767 7.39323C124.303 7.39323 123.897 7.45752 123.551 7.58611C123.215 7.7048 122.947 7.88778 122.75 8.13505C122.552 8.37243 122.428 8.65927 122.379 8.99556ZM135.031 13.9509C134.457 13.9509 133.913 13.9015 133.399 13.8025C132.885 13.7036 132.43 13.5553 132.034 13.3575C131.648 13.1596 131.342 12.9124 131.114 12.6156C130.887 12.309 130.773 11.9529 130.773 11.5474C130.773 11.498 130.773 11.4584 130.773 11.4287C130.783 11.3892 130.793 11.3496 130.803 11.31H133.088C133.088 11.3298 133.083 11.3545 133.073 11.3842C133.073 11.404 133.073 11.4238 133.073 11.4436C133.083 11.6809 133.177 11.8738 133.355 12.0222C133.543 12.1607 133.785 12.2645 134.082 12.3337C134.388 12.3931 134.71 12.4228 135.046 12.4228C135.372 12.4228 135.689 12.403 135.996 12.3634C136.302 12.314 136.554 12.2348 136.752 12.126C136.95 12.0073 137.049 11.8392 137.049 11.6216C137.049 11.3743 136.93 11.1963 136.693 11.0875C136.455 10.9787 136.124 10.8946 135.699 10.8353C135.273 10.766 134.784 10.6869 134.23 10.5979C133.795 10.5287 133.384 10.4396 132.999 10.3308C132.613 10.222 132.272 10.0836 131.975 9.91542C131.678 9.73738 131.446 9.51483 131.278 9.24778C131.109 8.97083 131.025 8.6296 131.025 8.22407C131.025 7.78887 131.124 7.41796 131.322 7.11134C131.53 6.79483 131.817 6.54261 132.183 6.35469C132.549 6.15687 132.984 6.01345 133.488 5.92443C133.993 5.82552 134.546 5.77607 135.15 5.77607C135.694 5.77607 136.198 5.82552 136.663 5.92443C137.138 6.01345 137.553 6.15192 137.909 6.33985C138.275 6.51789 138.557 6.74538 138.755 7.02232C138.963 7.29927 139.067 7.62072 139.067 7.98669C139.067 8.02625 139.067 8.07076 139.067 8.12022C139.067 8.15978 139.062 8.1944 139.052 8.22407H136.782V8.13505C136.782 7.94712 136.703 7.79382 136.544 7.67512C136.396 7.54654 136.193 7.45258 135.936 7.39323C135.689 7.33389 135.417 7.30422 135.12 7.30422C134.982 7.30422 134.809 7.31411 134.601 7.33389C134.403 7.34378 134.2 7.37345 133.993 7.42291C133.795 7.47236 133.627 7.5416 133.488 7.63062C133.35 7.70974 133.28 7.82843 133.28 7.98669C133.28 8.18451 133.389 8.33287 133.607 8.43178C133.834 8.53069 134.126 8.60982 134.482 8.66916C134.848 8.71862 135.244 8.77796 135.669 8.8472C136.124 8.91643 136.569 8.99556 137.004 9.08458C137.449 9.1736 137.84 9.30218 138.176 9.47033C138.523 9.63847 138.8 9.87091 139.007 10.1676C139.215 10.4644 139.319 10.8551 139.319 11.3397C139.319 11.8244 139.215 12.2348 139.007 12.5711C138.8 12.9074 138.508 13.1794 138.132 13.3871C137.756 13.5849 137.306 13.7284 136.782 13.8174C136.258 13.9064 135.674 13.9509 135.031 13.9509ZM144.947 13.9509C144.373 13.9509 143.829 13.9015 143.315 13.8025C142.8 13.7036 142.345 13.5553 141.95 13.3575C141.564 13.1596 141.257 12.9124 141.03 12.6156C140.802 12.309 140.689 11.9529 140.689 11.5474C140.689 11.498 140.689 11.4584 140.689 11.4287C140.698 11.3892 140.708 11.3496 140.718 11.31H143.003C143.003 11.3298 142.998 11.3545 142.988 11.3842C142.988 11.404 142.988 11.4238 142.988 11.4436C142.998 11.6809 143.092 11.8738 143.27 12.0222C143.458 12.1607 143.7 12.2645 143.997 12.3337C144.304 12.3931 144.625 12.4228 144.961 12.4228C145.288 12.4228 145.604 12.403 145.911 12.3634C146.218 12.314 146.47 12.2348 146.668 12.126C146.865 12.0073 146.964 11.8392 146.964 11.6216C146.964 11.3743 146.846 11.1963 146.608 11.0875C146.371 10.9787 146.04 10.8946 145.614 10.8353C145.189 10.766 144.699 10.6869 144.145 10.5979C143.71 10.5287 143.3 10.4396 142.914 10.3308C142.528 10.222 142.187 10.0836 141.89 9.91542C141.594 9.73738 141.361 9.51483 141.193 9.24778C141.025 8.97083 140.941 8.6296 140.941 8.22407C140.941 7.78887 141.04 7.41796 141.237 7.11134C141.445 6.79483 141.732 6.54261 142.098 6.35469C142.464 6.15687 142.899 6.01345 143.404 5.92443C143.908 5.82552 144.462 5.77607 145.065 5.77607C145.609 5.77607 146.114 5.82552 146.579 5.92443C147.053 6.01345 147.469 6.15192 147.825 6.33985C148.191 6.51789 148.473 6.74538 148.671 7.02232C148.878 7.29927 148.982 7.62072 148.982 7.98669C148.982 8.02625 148.982 8.07076 148.982 8.12022C148.982 8.15978 148.977 8.1944 148.967 8.22407H146.697V8.13505C146.697 7.94712 146.618 7.79382 146.46 7.67512C146.312 7.54654 146.109 7.45258 145.852 7.39323C145.604 7.33389 145.332 7.30422 145.036 7.30422C144.897 7.30422 144.724 7.31411 144.516 7.33389C144.319 7.34378 144.116 7.37345 143.908 7.42291C143.71 7.47236 143.542 7.5416 143.404 7.63062C143.265 7.70974 143.196 7.82843 143.196 7.98669C143.196 8.18451 143.305 8.33287 143.522 8.43178C143.75 8.53069 144.042 8.60982 144.398 8.66916C144.764 8.71862 145.159 8.77796 145.585 8.8472C146.04 8.91643 146.485 8.99556 146.92 9.08458C147.365 9.1736 147.756 9.30218 148.092 9.47033C148.438 9.63847 148.715 9.87091 148.923 10.1676C149.13 10.4644 149.234 10.8551 149.234 11.3397C149.234 11.8244 149.13 12.2348 148.923 12.5711C148.715 12.9074 148.423 13.1794 148.047 13.3871C147.672 13.5849 147.221 13.7284 146.697 13.8174C146.173 13.9064 145.589 13.9509 144.947 13.9509Z" fill="#0D0B1A"/>
</svg>
