<svg width="122" height="39" viewBox="0 0 122 39" fill="none" xmlns="http://www.w3.org/2000/svg">
<path d="M6.86142 16.6459C5.98614 16.6459 5.14213 16.5599 4.32937 16.388C3.53225 16.216 2.82109 15.9425 2.19589 15.5674C1.5707 15.1766 1.07054 14.6765 0.695421 14.0669C0.335933 13.4573 0.156189 12.7071 0.156189 11.8162C0.156189 11.7381 0.156189 11.6599 0.156189 11.5818C0.171819 11.5036 0.179634 11.4255 0.179634 11.3473H2.43034C2.43034 11.3942 2.42253 11.4724 2.4069 11.5818C2.4069 11.6755 2.4069 11.7615 2.4069 11.8397C2.4069 12.4649 2.59445 12.9963 2.96957 13.4339C3.34469 13.8715 3.86048 14.1998 4.51693 14.4186C5.18902 14.6218 5.94707 14.7234 6.79108 14.7234C7.1662 14.7234 7.55695 14.6999 7.96333 14.653C8.38534 14.6061 8.7839 14.528 9.15902 14.4186C9.54976 14.2935 9.89362 14.1372 10.1906 13.9497C10.5032 13.7465 10.7455 13.5042 10.9174 13.2229C11.1049 12.9259 11.1987 12.5664 11.1987 12.1444C11.1987 11.613 11.0424 11.1754 10.7298 10.8315C10.4329 10.472 10.0343 10.1829 9.53413 9.96407C9.03398 9.72962 8.46348 9.52643 7.82266 9.3545C7.19746 9.16694 6.54882 8.9872 5.87673 8.81527C5.20465 8.64334 4.54819 8.44796 3.90737 8.22915C3.28217 7.9947 2.71949 7.71336 2.21934 7.38513C1.71918 7.04127 1.3128 6.61926 1.0002 6.11911C0.703236 5.61895 0.554752 5.00938 0.554752 4.29041C0.554752 3.61832 0.687606 3.01657 0.953314 2.48515C1.23465 1.95374 1.64103 1.50829 2.17245 1.1488C2.71949 0.77368 3.39158 0.492341 4.1887 0.304782C4.98583 0.101594 5.90018 0 6.93175 0C7.77577 0 8.55726 0.093779 9.27624 0.281337C10.0108 0.453267 10.6517 0.726791 11.1987 1.10191C11.7614 1.4614 12.199 1.92248 12.5116 2.48515C12.8242 3.04783 12.9805 3.72773 12.9805 4.52486V4.8062H10.7767V4.45452C10.7767 3.92311 10.6126 3.46984 10.2844 3.09472C9.95614 2.7196 9.50287 2.43045 8.92457 2.22726C8.36189 2.02407 7.72106 1.92248 7.00209 1.92248C6.06429 1.92248 5.2828 2.01626 4.6576 2.20382C4.03241 2.37575 3.56351 2.63364 3.25091 2.9775C2.95394 3.30572 2.80546 3.68084 2.80546 4.10285C2.80546 4.58738 2.95394 4.99375 3.25091 5.32198C3.56351 5.65021 3.96989 5.92373 4.47004 6.14255C4.9702 6.34574 5.54069 6.5333 6.18152 6.70523C6.82234 6.87716 7.47099 7.0569 8.12744 7.24446C8.79953 7.41639 9.44817 7.61958 10.0734 7.85403C10.7142 8.07285 11.2847 8.35418 11.7848 8.69804C12.3006 9.02627 12.707 9.44828 13.004 9.96407C13.3009 10.4642 13.4494 11.0816 13.4494 11.8162C13.4494 12.9572 13.1681 13.8872 12.6054 14.6061C12.0427 15.3095 11.2691 15.8253 10.2844 16.1535C9.29969 16.4817 8.1587 16.6459 6.86142 16.6459Z" fill="#2A2739"/>
<path d="M16.6813 16.3645V4.03252H18.3459L18.5335 5.88466H18.6976C19.0102 5.3845 19.3619 4.97812 19.7526 4.66553C20.1434 4.35293 20.5732 4.12629 21.0421 3.98563C21.511 3.82933 22.0189 3.75118 22.566 3.75118C23.3631 3.75118 24.0508 3.91529 24.6291 4.24352C25.2074 4.55612 25.6373 5.10316 25.9186 5.88466H26.0593C26.3562 5.3845 26.7001 4.98594 27.0909 4.68897C27.4816 4.37637 27.9192 4.14192 28.4038 3.98563C28.8883 3.82933 29.4041 3.75118 29.9511 3.75118C30.7014 3.75118 31.3578 3.88403 31.9205 4.14974C32.4832 4.39982 32.9208 4.82183 33.2334 5.41576C33.5616 5.99407 33.7258 6.77556 33.7258 7.76025V16.3645H31.6626V8.08848C31.6626 7.58832 31.6001 7.17413 31.475 6.8459C31.3656 6.51767 31.2015 6.26759 30.9827 6.09566C30.7639 5.9081 30.506 5.77525 30.209 5.6971C29.9277 5.61895 29.6229 5.57988 29.2947 5.57988C28.7476 5.57988 28.2397 5.72055 27.7708 6.00188C27.3175 6.28322 26.9502 6.6896 26.6688 7.22102C26.3875 7.75243 26.2468 8.38544 26.2468 9.12005V16.3645H24.1837V8.08848C24.1837 7.58832 24.1212 7.17413 23.9961 6.8459C23.8711 6.51767 23.707 6.26759 23.5038 6.09566C23.3006 5.9081 23.0505 5.77525 22.7536 5.6971C22.4722 5.61895 22.1752 5.57988 21.8627 5.57988C21.3 5.57988 20.7764 5.72055 20.2918 6.00188C19.8229 6.28322 19.4478 6.6896 19.1665 7.22102C18.8852 7.75243 18.7445 8.38544 18.7445 9.12005V16.3645H16.6813Z" fill="#2A2739"/>
<path d="M40.2986 16.6459C39.8453 16.6459 39.392 16.5911 38.9387 16.4817C38.4855 16.3723 38.0635 16.1926 37.6727 15.9425C37.282 15.6924 36.9694 15.3486 36.7349 14.9109C36.5005 14.4577 36.3833 13.895 36.3833 13.2229C36.3833 12.3789 36.5864 11.6834 36.9928 11.1363C37.3992 10.5893 37.9619 10.1673 38.6809 9.87029C39.4155 9.55769 40.2829 9.34668 41.2832 9.23727C42.2835 9.11224 43.3698 9.04972 44.5421 9.04972V7.64302C44.5421 7.18976 44.4639 6.79901 44.3076 6.47078C44.1513 6.14255 43.87 5.89247 43.4636 5.72055C43.0729 5.53299 42.5102 5.43921 41.7756 5.43921C41.0722 5.43921 40.5096 5.53299 40.0875 5.72055C39.6812 5.89247 39.392 6.11911 39.2201 6.40045C39.0638 6.68178 38.9856 6.99438 38.9856 7.33824V7.68991H36.9928C36.9772 7.61176 36.9694 7.53361 36.9694 7.45546C36.9694 7.37731 36.9694 7.28354 36.9694 7.17413C36.9694 6.42389 37.1726 5.7987 37.5789 5.29854C38.001 4.78275 38.5871 4.39982 39.3373 4.14974C40.0875 3.88403 40.9472 3.75118 41.9162 3.75118C42.9478 3.75118 43.8075 3.89966 44.4952 4.19663C45.1985 4.4936 45.7221 4.91561 46.066 5.46265C46.4255 6.0097 46.6052 6.66616 46.6052 7.43202V14.1138C46.6052 14.4108 46.6756 14.6218 46.8162 14.7468C46.9569 14.8562 47.1288 14.9109 47.332 14.9109H48.2464V16.2707C48.0275 16.3645 47.7853 16.4427 47.5196 16.5052C47.2539 16.5833 46.9491 16.6224 46.6052 16.6224C46.1988 16.6224 45.8628 16.5364 45.5971 16.3645C45.3314 16.2082 45.1282 15.9894 44.9875 15.7081C44.8469 15.4111 44.7531 15.0829 44.7062 14.7234H44.5421C44.2607 15.1141 43.9012 15.458 43.4636 15.7549C43.0416 16.0363 42.5649 16.2551 42.0335 16.4114C41.5021 16.5677 40.9237 16.6459 40.2986 16.6459ZM40.8143 14.9109C41.3145 14.9109 41.7834 14.8328 42.221 14.6765C42.6743 14.5202 43.0729 14.3014 43.4167 14.02C43.7606 13.7231 44.0341 13.3714 44.2373 12.965C44.4405 12.5586 44.5421 12.1132 44.5421 11.6287V10.5971C43.2761 10.5971 42.1976 10.6674 41.3067 10.8081C40.4158 10.9487 39.7281 11.1988 39.2435 11.5583C38.7746 11.9178 38.5402 12.4258 38.5402 13.0822C38.5402 13.5042 38.634 13.8481 38.8215 14.1138C39.0091 14.3795 39.2748 14.5827 39.6187 14.7234C39.9625 14.8484 40.3611 14.9109 40.8143 14.9109Z" fill="#2A2739"/>
<path d="M50.3311 16.3645V4.03252H51.9957L52.1833 6.07222H52.3474C52.4724 5.68147 52.6443 5.31417 52.8632 4.97031C53.082 4.61082 53.379 4.32167 53.7541 4.10285C54.1292 3.8684 54.5903 3.75118 55.1373 3.75118C55.3718 3.75118 55.5828 3.77462 55.7703 3.82151C55.9735 3.85277 56.122 3.89185 56.2158 3.93874V5.83777H55.4421C54.9107 5.83777 54.4496 5.93155 54.0589 6.11911C53.6837 6.29104 53.3711 6.54112 53.1211 6.86934C52.871 7.19757 52.6834 7.58832 52.5584 8.04159C52.449 8.49485 52.3943 8.97938 52.3943 9.49517V16.3645H50.3311Z" fill="#2A2739"/>
<path d="M61.3509 16.6459C60.7101 16.6459 60.21 16.5286 59.8505 16.2942C59.491 16.0441 59.2331 15.7237 59.0768 15.3329C58.9205 14.9266 58.8423 14.4967 58.8423 14.0435V5.76744H57.2481V4.03252H58.8892L59.2643 0.586121H60.9055V4.03252H63.2265V5.76744H60.9055V13.7387C60.9055 14.1294 60.9758 14.4264 61.1165 14.6296C61.2572 14.8172 61.5229 14.9109 61.9136 14.9109H63.2265V16.2707C63.0702 16.3489 62.8827 16.4114 62.6638 16.4583C62.445 16.5052 62.2184 16.5443 61.9839 16.5755C61.7651 16.6224 61.5541 16.6459 61.3509 16.6459Z" fill="#2A2739"/>
<path d="M0 37.7348V21.6282H11.91C12.7696 21.6282 13.5433 21.8001 14.231 22.144C14.9187 22.4722 15.458 22.9333 15.8487 23.5272C16.2551 24.1212 16.4583 24.8167 16.4583 25.6138C16.4583 26.2547 16.3333 26.8251 16.0832 27.3253C15.8487 27.8255 15.5283 28.2397 15.1219 28.5679C14.7156 28.8961 14.2623 29.1384 13.7621 29.2947V29.3885C14.3561 29.5135 14.8875 29.7479 15.3564 30.0918C15.8409 30.4357 16.216 30.8811 16.4817 31.4282C16.7631 31.9596 16.9037 32.5926 16.9037 33.3272C16.9037 34.2962 16.6771 35.109 16.2238 35.7655C15.7862 36.4219 15.1923 36.9143 14.442 37.2425C13.6918 37.5707 12.8556 37.7348 11.9334 37.7348H0ZM3.91529 34.6635H10.9722C11.5192 34.6635 11.9725 34.5151 12.332 34.2181C12.6915 33.9211 12.8712 33.4522 12.8712 32.8114C12.8712 32.4675 12.7931 32.1549 12.6368 31.8736C12.4961 31.5923 12.2773 31.3813 11.9803 31.2406C11.6834 31.0843 11.3004 31.0061 10.8315 31.0061H3.91529V34.6635ZM3.91529 28.0755H10.5502C10.9566 28.0755 11.3004 28.0052 11.5818 27.8645C11.8631 27.7082 12.0741 27.505 12.2148 27.255C12.3711 26.9893 12.4492 26.6923 12.4492 26.3641C12.4492 25.8014 12.2851 25.3794 11.9569 25.098C11.6287 24.8011 11.1988 24.6526 10.6674 24.6526H3.91529V28.0755Z" fill="#0D0B1A"/>
<path d="M24.9541 38.0162C23.313 38.0162 22.0626 37.6176 21.2029 36.8205C20.3589 36.0233 19.9369 34.7886 19.9369 33.1162V25.3794H23.5005V32.5535C23.5005 33.0224 23.5631 33.421 23.6881 33.7492C23.8288 34.0774 24.0163 34.3431 24.2508 34.5463C24.4852 34.7495 24.7744 34.898 25.1182 34.9918C25.4621 35.0856 25.8372 35.1324 26.2436 35.1324C26.8688 35.1324 27.4393 35.0074 27.9551 34.7573C28.4865 34.4916 28.9085 34.1321 29.2211 33.6789C29.5337 33.21 29.69 32.6707 29.69 32.0612V25.3794H33.277V37.7348H30.3699L30.112 35.742H29.9244C29.5181 36.2891 29.0413 36.7267 28.4943 37.0549C27.9629 37.3831 27.3924 37.6254 26.7828 37.7817C26.1889 37.938 25.5793 38.0162 24.9541 38.0162Z" fill="#0D0B1A"/>
<path d="M42.8237 38.0162C41.9171 38.0162 41.0575 37.938 40.2447 37.7817C39.432 37.6254 38.713 37.391 38.0878 37.0784C37.4783 36.7658 36.9937 36.375 36.6342 35.9061C36.2748 35.4216 36.095 34.8589 36.095 34.2181C36.095 34.1399 36.095 34.0774 36.095 34.0305C36.1106 33.968 36.1263 33.9055 36.1419 33.843H39.7524C39.7524 33.8742 39.7446 33.9133 39.729 33.9602C39.729 33.9915 39.729 34.0227 39.729 34.054C39.7446 34.4291 39.8931 34.7339 40.1744 34.9683C40.4714 35.1871 40.8543 35.3513 41.3232 35.4607C41.8077 35.5544 42.3157 35.6013 42.8471 35.6013C43.3629 35.6013 43.8631 35.5701 44.3476 35.5076C44.8321 35.4294 45.2307 35.3044 45.5433 35.1324C45.8559 34.9449 46.0122 34.6792 46.0122 34.3353C46.0122 33.9446 45.8246 33.6632 45.4495 33.4913C45.0744 33.3194 44.5508 33.1865 43.8787 33.0927C43.2066 32.9833 42.4329 32.8583 41.5577 32.7176C40.8699 32.6082 40.2213 32.4675 39.6117 32.2956C39.0022 32.1237 38.4629 31.9049 37.994 31.6392C37.5251 31.3578 37.1578 31.0061 36.8921 30.5841C36.6264 30.1465 36.4936 29.6073 36.4936 28.9664C36.4936 28.2787 36.6499 27.6926 36.9625 27.2081C37.2907 26.7079 37.744 26.3094 38.3223 26.0124C38.9006 25.6998 39.5883 25.4732 40.3854 25.3325C41.1825 25.1762 42.0578 25.098 43.0112 25.098C43.8709 25.098 44.668 25.1762 45.4026 25.3325C46.1529 25.4732 46.8093 25.692 47.372 25.9889C47.9503 26.2703 48.3957 26.6298 48.7083 27.0674C49.0366 27.505 49.2007 28.013 49.2007 28.5913C49.2007 28.6538 49.2007 28.7242 49.2007 28.8023C49.2007 28.8648 49.1929 28.9196 49.1772 28.9664H45.5902V28.8258C45.5902 28.5288 45.4651 28.2865 45.2151 28.099C44.9806 27.8958 44.6602 27.7473 44.2538 27.6535C43.8631 27.5598 43.4333 27.5129 42.9644 27.5129C42.7455 27.5129 42.472 27.5285 42.1438 27.5598C41.8312 27.5754 41.5108 27.6223 41.1825 27.7004C40.8699 27.7786 40.6042 27.888 40.3854 28.0286C40.1666 28.1537 40.0572 28.3412 40.0572 28.5913C40.0572 28.9039 40.2291 29.1384 40.573 29.2947C40.9325 29.451 41.3935 29.576 41.9562 29.6698C42.5345 29.7479 43.1597 29.8417 43.8318 29.9511C44.5508 30.0605 45.2541 30.1856 45.9418 30.3262C46.6452 30.4669 47.2626 30.6701 47.794 30.9358C48.341 31.2015 48.7787 31.5688 49.1069 32.0377C49.4351 32.5066 49.5992 33.124 49.5992 33.8899C49.5992 34.6557 49.4351 35.3044 49.1069 35.8358C48.7787 36.3672 48.3176 36.797 47.7237 37.1253C47.1297 37.4379 46.4186 37.6645 45.5902 37.8052C44.7618 37.9458 43.8396 38.0162 42.8237 38.0162Z" fill="#0D0B1A"/>
<path d="M52.4436 23.5038V20.7607H56.0306V23.5038H52.4436ZM52.4436 37.7348V25.3794H56.0306V37.7348H52.4436Z" fill="#0D0B1A"/>
<path d="M59.5265 37.7348V25.3794H62.4337L62.6916 27.3722H62.9026C63.3089 26.8251 63.7778 26.3875 64.3092 26.0593C64.8407 25.7311 65.4112 25.4888 66.0207 25.3325C66.6459 25.1762 67.2633 25.098 67.8729 25.098C68.967 25.098 69.8813 25.2778 70.6159 25.6373C71.3662 25.9811 71.9288 26.5125 72.3039 27.2315C72.6791 27.9505 72.8666 28.8727 72.8666 29.998V37.7348H69.303V30.5607C69.303 30.0918 69.2405 29.6932 69.1154 29.365C68.9904 29.0368 68.8028 28.7711 68.5528 28.5679C68.3183 28.3647 68.0292 28.2162 67.6853 28.1224C67.3571 28.0286 66.982 27.9818 66.56 27.9818C65.9348 27.9818 65.3565 28.1146 64.825 28.3803C64.3092 28.6304 63.8951 28.9899 63.5825 29.4588C63.2699 29.9121 63.1136 30.4435 63.1136 31.053V37.7348H59.5265Z" fill="#0D0B1A"/>
<path d="M83.3505 38.0162C81.7875 38.0162 80.4433 37.7895 79.318 37.3363C78.1926 36.8674 77.3252 36.1562 76.7156 35.2028C76.106 34.2494 75.8013 33.038 75.8013 31.5688C75.8013 30.1152 76.0982 28.9117 76.6922 27.9583C77.2861 26.9893 78.1379 26.2703 79.2477 25.8014C80.3574 25.3325 81.6781 25.098 83.2098 25.098C84.7885 25.098 86.117 25.3325 87.1955 25.8014C88.2896 26.2703 89.1101 26.9658 89.6572 27.888C90.2198 28.8101 90.5012 29.9589 90.5012 31.3344V32.3659H79.529C79.5603 33.0849 79.7322 33.6789 80.0448 34.1478C80.3574 34.601 80.795 34.9371 81.3577 35.1559C81.936 35.3591 82.6159 35.4607 83.3974 35.4607C83.7725 35.4607 84.1554 35.4216 84.5462 35.3434C84.9369 35.2497 85.2964 35.1246 85.6247 34.9683C85.9529 34.7964 86.2264 34.5854 86.4452 34.3353C86.664 34.0696 86.7891 33.7648 86.8203 33.421H90.4308C90.4308 34.1087 90.2667 34.7339 89.9385 35.2966C89.6103 35.8592 89.1336 36.3438 88.5084 36.7501C87.8832 37.1565 87.1329 37.4691 86.2577 37.6879C85.398 37.9067 84.429 38.0162 83.3505 38.0162ZM79.529 30.1856H86.7266C86.7266 29.7636 86.6406 29.3963 86.4687 29.0837C86.2967 28.7554 86.0545 28.4897 85.7419 28.2865C85.4293 28.0834 85.062 27.9271 84.64 27.8176C84.2336 27.7082 83.7881 27.6535 83.3036 27.6535C82.569 27.6535 81.9282 27.7551 81.3811 27.9583C80.8497 28.1459 80.4277 28.435 80.1151 28.8258C79.8025 29.2009 79.6071 29.6542 79.529 30.1856Z" fill="#0D0B1A"/>
<path d="M99.5227 38.0162C98.6162 38.0162 97.7565 37.938 96.9438 37.7817C96.131 37.6254 95.412 37.391 94.7868 37.0784C94.1773 36.7658 93.6927 36.375 93.3333 35.9061C92.9738 35.4216 92.794 34.8589 92.794 34.2181C92.794 34.1399 92.794 34.0774 92.794 34.0305C92.8096 33.968 92.8253 33.9055 92.8409 33.843H96.4514C96.4514 33.8742 96.4436 33.9133 96.428 33.9602C96.428 33.9915 96.428 34.0227 96.428 34.054C96.4436 34.4291 96.5921 34.7339 96.8734 34.9683C97.1704 35.1871 97.5533 35.3513 98.0222 35.4607C98.5067 35.5544 99.0147 35.6013 99.5461 35.6013C100.062 35.6013 100.562 35.5701 101.047 35.5076C101.531 35.4294 101.93 35.3044 102.242 35.1324C102.555 34.9449 102.711 34.6792 102.711 34.3353C102.711 33.9446 102.524 33.6632 102.149 33.4913C101.773 33.3194 101.25 33.1865 100.578 33.0927C99.9056 32.9833 99.1319 32.8583 98.2567 32.7176C97.569 32.6082 96.9203 32.4675 96.3108 32.2956C95.7012 32.1237 95.1619 31.9049 94.6931 31.6392C94.2242 31.3578 93.8568 31.0061 93.5911 30.5841C93.3254 30.1465 93.1926 29.6073 93.1926 28.9664C93.1926 28.2787 93.3489 27.6926 93.6615 27.2081C93.9897 26.7079 94.443 26.3094 95.0213 26.0124C95.5996 25.6998 96.2873 25.4732 97.0844 25.3325C97.8816 25.1762 98.7568 25.098 99.7103 25.098C100.57 25.098 101.367 25.1762 102.102 25.3325C102.852 25.4732 103.508 25.692 104.071 25.9889C104.649 26.2703 105.095 26.6298 105.407 27.0674C105.736 27.505 105.9 28.013 105.9 28.5913C105.9 28.6538 105.9 28.7242 105.9 28.8023C105.9 28.8648 105.892 28.9196 105.876 28.9664H102.289V28.8258C102.289 28.5288 102.164 28.2865 101.914 28.099C101.68 27.8958 101.359 27.7473 100.953 27.6535C100.562 27.5598 100.132 27.5129 99.6634 27.5129C99.4445 27.5129 99.171 27.5285 98.8428 27.5598C98.5302 27.5754 98.2098 27.6223 97.8816 27.7004C97.569 27.7786 97.3032 27.888 97.0844 28.0286C96.8656 28.1537 96.7562 28.3412 96.7562 28.5913C96.7562 28.9039 96.9281 29.1384 97.272 29.2947C97.6315 29.451 98.0926 29.576 98.6552 29.6698C99.2335 29.7479 99.8587 29.8417 100.531 29.9511C101.25 30.0605 101.953 30.1856 102.641 30.3262C103.344 30.4669 103.962 30.6701 104.493 30.9358C105.04 31.2015 105.478 31.5688 105.806 32.0377C106.134 32.5066 106.298 33.124 106.298 33.8899C106.298 34.6557 106.134 35.3044 105.806 35.8358C105.478 36.3672 105.017 36.797 104.423 37.1253C103.829 37.4379 103.118 37.6645 102.289 37.8052C101.461 37.9458 100.539 38.0162 99.5227 38.0162Z" fill="#0D0B1A"/>
<path d="M115.191 38.0162C114.285 38.0162 113.425 37.938 112.612 37.7817C111.8 37.6254 111.081 37.391 110.456 37.0784C109.846 36.7658 109.361 36.375 109.002 35.9061C108.642 35.4216 108.463 34.8589 108.463 34.2181C108.463 34.1399 108.463 34.0774 108.463 34.0305C108.478 33.968 108.494 33.9055 108.51 33.843H112.12C112.12 33.8742 112.112 33.9133 112.097 33.9602C112.097 33.9915 112.097 34.0227 112.097 34.054C112.112 34.4291 112.261 34.7339 112.542 34.9683C112.839 35.1871 113.222 35.3513 113.691 35.4607C114.175 35.5544 114.683 35.6013 115.215 35.6013C115.731 35.6013 116.231 35.5701 116.715 35.5076C117.2 35.4294 117.598 35.3044 117.911 35.1324C118.224 34.9449 118.38 34.6792 118.38 34.3353C118.38 33.9446 118.192 33.6632 117.817 33.4913C117.442 33.3194 116.918 33.1865 116.246 33.0927C115.574 32.9833 114.801 32.8583 113.925 32.7176C113.238 32.6082 112.589 32.4675 111.979 32.2956C111.37 32.1237 110.831 31.9049 110.362 31.6392C109.893 31.3578 109.526 31.0061 109.26 30.5841C108.994 30.1465 108.861 29.6073 108.861 28.9664C108.861 28.2787 109.018 27.6926 109.33 27.2081C109.658 26.7079 110.112 26.3094 110.69 26.0124C111.268 25.6998 111.956 25.4732 112.753 25.3325C113.55 25.1762 114.426 25.098 115.379 25.098C116.239 25.098 117.036 25.1762 117.77 25.3325C118.521 25.4732 119.177 25.692 119.74 25.9889C120.318 26.2703 120.763 26.6298 121.076 27.0674C121.404 27.505 121.568 28.013 121.568 28.5913C121.568 28.6538 121.568 28.7242 121.568 28.8023C121.568 28.8648 121.561 28.9196 121.545 28.9664H117.958V28.8258C117.958 28.5288 117.833 28.2865 117.583 28.099C117.348 27.8958 117.028 27.7473 116.622 27.6535C116.231 27.5598 115.801 27.5129 115.332 27.5129C115.113 27.5129 114.84 27.5285 114.511 27.5598C114.199 27.5754 113.878 27.6223 113.55 27.7004C113.238 27.7786 112.972 27.888 112.753 28.0286C112.534 28.1537 112.425 28.3412 112.425 28.5913C112.425 28.9039 112.597 29.1384 112.941 29.2947C113.3 29.451 113.761 29.576 114.324 29.6698C114.902 29.7479 115.527 29.8417 116.199 29.9511C116.918 30.0605 117.622 30.1856 118.31 30.3262C119.013 30.4669 119.63 30.6701 120.162 30.9358C120.709 31.2015 121.146 31.5688 121.475 32.0377C121.803 32.5066 121.967 33.124 121.967 33.8899C121.967 34.6557 121.803 35.3044 121.475 35.8358C121.146 36.3672 120.685 36.797 120.091 37.1253C119.497 37.4379 118.786 37.6645 117.958 37.8052C117.129 37.9458 116.207 38.0162 115.191 38.0162Z" fill="#0D0B1A"/>
</svg>
